<svg xmlns="http://www.w3.org/2000/svg" version="1.1" xmlns:xlink="http://www.w3.org/1999/xlink" xmlns:svgjs="http://svgjs.dev/svgjs" width="1000" height="598" viewBox="0 0 1000 598"><g transform="matrix(1,0,0,1,-0.6060604830185525,-0.3571978742918418)"><svg viewBox="0 0 396 237" data-background-color="#dedede" preserveAspectRatio="xMidYMid meet" height="598" width="1000" xmlns="http://www.w3.org/2000/svg" xmlns:xlink="http://www.w3.org/1999/xlink"><g id="tight-bounds" transform="matrix(1,0,0,1,0.2400000487247098,0.14156504382469848)"><svg viewBox="0 0 395.52 236.7168695495692" height="236.7168695495692" width="395.52"><g><svg viewBox="0 0 395.52 236.7168695495692" height="236.7168695495692" width="395.52"><g transform="matrix(1,0,0,1,0,172.3071027097862)"><svg viewBox="0 0 395.52 64.40976683978299" height="64.40976683978299" width="395.52"><g><svg viewBox="0 0 395.52 64.40976683978299" height="64.40976683978299" width="395.52"><g><svg viewBox="0 0 395.52 34.7395505037458" height="34.7395505037458" width="395.52"><g transform="matrix(1,0,0,1,0,0)"><svg width="395.52" viewBox="5.400000095367432 -33.5 387.07000732421875 34" height="34.7395505037458" data-palette-color="#374151"><path d="M31.15-33L37.3-33 37.3 0 33.5 0 33.5-20.75 33.95-29.45 33.9-29.45 23.05 0 19.65 0 8.8-29.45 8.75-29.45 9.2-20.75 9.2 0 5.4 0 5.4-33 11.55-33 18.8-12.95 21.3-4.7 21.4-4.7 23.95-12.9 31.15-33ZM72 0L48.1 0 48.1-33 71.25-33 71.25-29.25 52.1-29.25 52.1-18.6 67-18.6 67-14.85 52.1-14.85 52.1-3.75 72-3.75 72 0ZM84-33L84-3.75 102.9-3.75 102.9 0 80 0 80-33 84-33ZM109.89-33L113.89-33 113.89 0 109.89 0 109.89-33ZM135.29-33.5L135.29-33.5Q139.64-33.5 142.79-31.73 145.94-29.95 148.04-26.5L148.04-26.5 144.69-23.9Q142.84-27.1 140.52-28.43 138.19-29.75 134.89-29.75L134.89-29.75Q132.24-29.75 130.52-29 128.79-28.25 127.99-27.03 127.19-25.8 127.19-24.25L127.19-24.25Q127.19-22.5 128.29-21.18 129.39-19.85 132.69-19.1L132.69-19.1 139.84-17.5Q144.59-16.45 146.47-14.33 148.34-12.2 148.34-9.05L148.34-9.05Q148.34-6.25 146.77-4.08 145.19-1.9 142.34-0.7 139.49 0.5 135.64 0.5L135.64 0.5Q132.04 0.5 129.32-0.48 126.59-1.45 124.64-3.1 122.69-4.75 121.44-6.8L121.44-6.8 124.94-9.65Q125.89-7.75 127.39-6.3 128.89-4.85 131.02-4.05 133.14-3.25 135.89-3.25L135.89-3.25Q138.44-3.25 140.32-3.88 142.19-4.5 143.19-5.73 144.19-6.95 144.19-8.7L144.19-8.7Q144.19-10.3 143.14-11.58 142.09-12.85 139.19-13.5L139.19-13.5 131.44-15.25Q128.39-15.95 126.52-17.18 124.64-18.4 123.82-20.08 122.99-21.75 122.99-23.7L122.99-23.7Q122.99-26.35 124.47-28.58 125.94-30.8 128.72-32.15 131.49-33.5 135.29-33.5ZM167.34-33.5L167.34-33.5Q171.69-33.5 174.84-31.73 177.99-29.95 180.09-26.5L180.09-26.5 176.74-23.9Q174.89-27.1 172.56-28.43 170.24-29.75 166.94-29.75L166.94-29.75Q164.29-29.75 162.56-29 160.84-28.25 160.04-27.03 159.24-25.8 159.24-24.25L159.24-24.25Q159.24-22.5 160.34-21.18 161.44-19.85 164.74-19.1L164.74-19.1 171.89-17.5Q176.64-16.45 178.51-14.33 180.39-12.2 180.39-9.05L180.39-9.05Q180.39-6.25 178.81-4.08 177.24-1.9 174.39-0.7 171.54 0.5 167.69 0.5L167.69 0.5Q164.09 0.5 161.36-0.48 158.64-1.45 156.69-3.1 154.74-4.75 153.49-6.8L153.49-6.8 156.99-9.65Q157.94-7.75 159.44-6.3 160.94-4.85 163.06-4.05 165.19-3.25 167.94-3.25L167.94-3.25Q170.49-3.25 172.36-3.88 174.24-4.5 175.24-5.73 176.24-6.95 176.24-8.7L176.24-8.7Q176.24-10.3 175.19-11.58 174.14-12.85 171.24-13.5L171.24-13.5 163.49-15.25Q160.44-15.95 158.56-17.18 156.69-18.4 155.86-20.08 155.04-21.75 155.04-23.7L155.04-23.7Q155.04-26.35 156.51-28.58 157.99-30.8 160.76-32.15 163.54-33.5 167.34-33.5ZM188.89 0L184.69 0 197.54-33 202.29-33 215.09 0 210.84 0 201.44-24.6 199.89-29.2 199.79-29.2 198.34-24.75 188.89 0ZM208.64-9.15L190.99-9.15 190.99-12.9 208.64-12.9 208.64-9.15ZM249.93 0L244.98 0 235.23-33 239.38-33 247.53-3.65 255.28-33 259.83-33 267.58-3.55 275.73-33 279.68-33 269.98 0 265.03 0 259.18-21.4 257.48-28.85 257.43-28.85 255.73-21.4 249.93 0ZM308.78-33L312.78-33 312.78 0 308.78 0 308.78-33ZM286.88-33L290.88-33 290.88 0 286.88 0 286.88-33ZM288.98-18.6L310.63-18.6 310.63-14.85 288.98-14.85 288.98-18.6ZM323.58-33L327.58-33 327.58 0 323.58 0 323.58-33ZM334.57-33L361.57-33 361.57-29.25 350.07-29.25 350.07 0 346.07 0 346.07-29.25 334.57-29.25 334.57-33ZM392.47 0L368.57 0 368.57-33 391.72-33 391.72-29.25 372.57-29.25 372.57-18.6 387.47-18.6 387.47-14.85 372.57-14.85 372.57-3.75 392.47-3.75 392.47 0Z" opacity="1" transform="matrix(1,0,0,1,0,0)" fill="#374151" class="undefined-text-0" data-fill-palette-color="primary" id="text-0"></path></svg></g></svg></g><g transform="matrix(1,0,0,1,106.18966104443041,42.94072462846809)"><svg viewBox="0 0 183.14067791113916 21.469042211314903" height="21.469042211314903" width="183.14067791113916"><g transform="matrix(1,0,0,1,0,0)"><svg width="183.14067791113916" viewBox="3.6500000953674316 -35.599998474121094 385.1100158691406 45.14999771118164" height="21.469042211314903" data-palette-color="#374151"><path d="M21.15-32.5L21.15-32.5 21.15-29.05Q19.95-29.85 18-30.4 16.05-30.95 14.2-30.95L14.2-30.95Q10.85-30.95 8.85-29.38 6.85-27.8 6.85-25.2L6.85-25.2Q6.85-23.85 7.38-22.8 7.9-21.75 9.15-20.88 10.4-20 11.33-19.53 12.25-19.05 14.15-18.25L14.15-18.25Q15.9-17.5 16.8-17.07 17.7-16.65 19.1-15.75 20.5-14.85 21.23-13.98 21.95-13.1 22.53-11.73 23.1-10.35 23.1-8.7L23.1-8.7Q23.1-4.3 20.15-1.98 17.2 0.35 12.6 0.35L12.6 0.35Q7.4 0.35 3.75-1.85L3.75-1.85 3.75-5.3Q5.25-4.15 7.63-3.4 10-2.65 12.45-2.65L12.45-2.65Q16-2.65 17.98-4.2 19.95-5.75 19.95-8.65L19.95-8.65Q19.95-10.85 18.45-12.23 16.95-13.6 14.1-14.85L14.1-14.85Q13.7-15.05 12.35-15.63 11-16.2 10.45-16.45 9.9-16.7 8.75-17.3 7.6-17.9 7.08-18.35 6.55-18.8 5.75-19.55 4.95-20.3 4.6-21.05 4.25-21.8 3.95-22.83 3.65-23.85 3.65-25L3.65-25Q3.65-29.25 6.7-31.63 9.75-34 14.15-34L14.15-34Q18.35-34 21.15-32.5ZM40.25 0.45L40.25 0.45Q34.9 0.45 31.75-3.25 28.6-6.95 28.6-12.55L28.6-12.55Q28.6-18.1 31.85-21.9 35.1-25.7 40.25-25.7L40.25-25.7Q45.9-25.7 49.02-21.98 52.15-18.25 52.15-12.55L52.15-12.55Q52.15-6.9 48.97-3.23 45.8 0.45 40.25 0.45ZM40.25-22.8L40.25-22.8Q36.3-22.8 34.05-19.8 31.8-16.8 31.8-12.55L31.8-12.55Q31.8-8.4 34.12-5.43 36.45-2.45 40.25-2.45L40.25-2.45Q44.4-2.45 46.67-5.38 48.95-8.3 48.95-12.55L48.95-12.55Q48.95-16.95 46.8-19.88 44.65-22.8 40.25-22.8ZM69.45-35.3L69.45-35.3 69.45-32.3Q68.4-32.7 67.25-32.7L67.25-32.7Q65.75-32.7 64.67-31.53 63.6-30.35 63.6-28L63.6-28 63.6-25.35 69.4-25.35 69.4-22.75 63.6-22.75 63.6 0 60.55 0 60.55-22.75 55.9-22.75 55.9-25.35 60.55-25.35 60.55-28.05Q60.55-31.5 62.35-33.55 64.15-35.6 67.4-35.6L67.4-35.6Q68.34-35.6 69.45-35.3ZM86.39-22.75L79.14-22.75 79.14-7Q79.14-2.65 83.19-2.65L83.19-2.65Q85.19-2.65 86.59-3.8L86.59-3.8 86.59-0.7Q85.14 0.25 83.24 0.25L83.24 0.25Q76.04 0.25 76.04-7.15L76.04-7.15 76.04-22.75 71.89-22.75 71.89-25.35 76.04-25.35 76.04-31.7 79.14-31.7 79.14-25.35 86.39-25.35 86.39-22.75ZM102.19 0L98.09 0 90.34-25.35 93.69-25.35 96.19-16.95Q97.59-12.25 98.57-8.78 99.54-5.3 99.84-4.2L99.84-4.2 100.09-3.05Q100.99-6.3 104.09-17L104.09-17 106.49-25.35 110.09-25.35 112.59-17 116.69-2.95Q117.49-5.9 120.94-17L120.94-17 123.54-25.35 126.74-25.35 118.74 0 114.64 0 112.19-8.3 108.29-21.8Q107.44-18.65 104.54-8.3L104.54-8.3 102.19 0ZM145.99-8.4L145.99-12.05 141.04-12.05Q137.49-12.05 135.74-10.68 133.99-9.3 133.99-7.25L133.99-7.25Q133.99-5.15 135.36-3.85 136.74-2.55 139.39-2.55L139.39-2.55Q142.39-2.55 144.19-4.2 145.99-5.85 145.99-8.4L145.99-8.4ZM132.59-20.7L132.59-20.7 132.59-24Q135.49-25.75 139.74-25.75L139.74-25.75Q149.04-25.75 149.04-16L149.04-16 149.04 0 145.99 0 145.99-2.95Q143.89 0.25 138.69 0.25L138.69 0.25Q135.19 0.25 132.96-1.83 130.74-3.9 130.74-7.15L130.74-7.15Q130.74-10.8 133.56-12.83 136.39-14.85 141.04-14.85L141.04-14.85 145.99-14.85 145.99-16Q145.99-19.4 144.54-21.13 143.09-22.85 139.69-22.85L139.69-22.85Q135.74-22.85 132.59-20.7ZM156.34-25.35L159.39-25.35 159.39-21.05Q161.49-25.65 166.49-25.65L166.49-25.65Q166.84-25.65 167.74-25.55L167.74-25.55 167.74-22.45Q166.74-22.75 165.74-22.75L165.74-22.75Q163.04-22.75 161.21-20.08 159.39-17.4 159.39-14.15L159.39-14.15 159.39 0 156.34 0 156.34-25.35ZM173.68-14.1L188.63-14.1 188.63-15.25Q188.63-18.7 186.71-20.75 184.78-22.8 181.53-22.8L181.53-22.8Q178.33-22.8 176.18-20.55 174.03-18.3 173.68-14.1L173.68-14.1ZM190.18-4.35L190.18-4.35 190.18-1.25Q187.18 0.25 183.18 0.25L183.18 0.25Q177.53 0.25 174.01-3.28 170.48-6.8 170.48-12.55L170.48-12.55Q170.48-18.65 173.58-22.15 176.68-25.65 181.63-25.65L181.63-25.65Q186.28-25.65 189.03-22.6 191.78-19.55 191.78-14L191.78-14Q191.78-12.3 191.58-11.3L191.58-11.3 173.68-11.3Q174.03-7.1 176.58-4.88 179.13-2.65 183.33-2.65L183.33-2.65Q187.63-2.65 190.18-4.35ZM213.38-15.4L213.38-2.85 228.53-2.85 228.53 0 210.28 0 210.28-33.7 228.23-33.7 228.23-30.85 213.38-30.85 213.38-18.25 226.48-18.25 226.48-15.4 213.38-15.4ZM234.58-25.35L237.63-25.35 237.63-21Q239.97-25.75 245.68-25.75L245.68-25.75Q249.33-25.75 251.53-23.5 253.73-21.25 253.73-17.7L253.73-17.7 253.73 0 250.68 0 250.68-16.75Q250.68-19.7 249.18-21.25 247.68-22.8 245.22-22.8L245.22-22.8Q242.13-22.8 239.88-20.43 237.63-18.05 237.63-14L237.63-14 237.63 0 234.58 0 234.58-25.35ZM270.07-3.5L270.07-3.5Q272.92-3.5 275.27-5.73 277.62-7.95 277.62-12.55L277.62-12.55Q277.62-17.8 275.37-20.33 273.12-22.85 270.32-22.85L270.32-22.85Q266.77-22.85 264.72-20.05 262.67-17.25 262.67-12.8L262.67-12.8Q262.67-8.25 264.97-5.88 267.27-3.5 270.07-3.5ZM277.62-20.9L277.62-25.35 280.67-25.35 280.67-1.95Q280.67 3.8 277.57 6.68 274.47 9.55 269.57 9.55L269.57 9.55Q265.22 9.55 262.17 8.1L262.17 8.1 262.17 5.1Q265.27 6.65 269.32 6.65L269.32 6.65Q273.12 6.65 275.37 4.58 277.62 2.5 277.62-1.95L277.62-1.95 277.62-5.25Q275.07-0.6 270.02-0.6L270.02-0.6Q265.62-0.6 262.55-3.85 259.47-7.1 259.47-12.65L259.47-12.65Q259.47-18.35 262.3-22.05 265.12-25.75 269.72-25.75L269.72-25.75Q275.17-25.75 277.62-20.9L277.62-20.9ZM291.22 0L288.17 0 288.17-25.35 291.22-25.35 291.22 0ZM288.17-31.95Q287.57-32.55 287.57-33.45 287.57-34.35 288.17-34.98 288.77-35.6 289.67-35.6 290.57-35.6 291.19-34.98 291.82-34.35 291.82-33.45 291.82-32.55 291.19-31.95 290.57-31.35 289.67-31.35 288.77-31.35 288.17-31.95ZM299.02-25.35L302.07-25.35 302.07-21Q304.42-25.75 310.12-25.75L310.12-25.75Q313.77-25.75 315.97-23.5 318.17-21.25 318.17-17.7L318.17-17.7 318.17 0 315.12 0 315.12-16.75Q315.12-19.7 313.62-21.25 312.12-22.8 309.67-22.8L309.67-22.8Q306.57-22.8 304.32-20.43 302.07-18.05 302.07-14L302.07-14 302.07 0 299.02 0 299.02-25.35ZM327.12-14.1L342.06-14.1 342.06-15.25Q342.06-18.7 340.14-20.75 338.22-22.8 334.97-22.8L334.97-22.8Q331.77-22.8 329.62-20.55 327.47-18.3 327.12-14.1L327.12-14.1ZM343.62-4.35L343.62-4.35 343.62-1.25Q340.62 0.25 336.62 0.25L336.62 0.25Q330.97 0.25 327.44-3.28 323.92-6.8 323.92-12.55L323.92-12.55Q323.92-18.65 327.02-22.15 330.12-25.65 335.06-25.65L335.06-25.65Q339.72-25.65 342.47-22.6 345.22-19.55 345.22-14L345.22-14Q345.22-12.3 345.02-11.3L345.02-11.3 327.12-11.3Q327.47-7.1 330.02-4.88 332.56-2.65 336.77-2.65L336.77-2.65Q341.06-2.65 343.62-4.35ZM353.06-14.1L368.01-14.1 368.01-15.25Q368.01-18.7 366.09-20.75 364.16-22.8 360.91-22.8L360.91-22.8Q357.71-22.8 355.56-20.55 353.41-18.3 353.06-14.1L353.06-14.1ZM369.56-4.35L369.56-4.35 369.56-1.25Q366.56 0.25 362.56 0.25L362.56 0.25Q356.91 0.25 353.39-3.28 349.86-6.8 349.86-12.55L349.86-12.55Q349.86-18.65 352.96-22.15 356.06-25.65 361.01-25.65L361.01-25.65Q365.66-25.65 368.41-22.6 371.16-19.55 371.16-14L371.16-14Q371.16-12.3 370.96-11.3L370.96-11.3 353.06-11.3Q353.41-7.1 355.96-4.88 358.51-2.65 362.71-2.65L362.71-2.65Q367.01-2.65 369.56-4.35ZM377.36-25.35L380.41-25.35 380.41-21.05Q382.51-25.65 387.51-25.65L387.51-25.65Q387.86-25.65 388.76-25.55L388.76-25.55 388.76-22.45Q387.76-22.75 386.76-22.75L386.76-22.75Q384.06-22.75 382.24-20.08 380.41-17.4 380.41-14.15L380.41-14.15 380.41 0 377.36 0 377.36-25.35Z" opacity="1" transform="matrix(1,0,0,1,0,0)" fill="#374151" class="undefined-text-1" data-fill-palette-color="secondary" id="text-1"></path></svg></g></svg></g></svg></g></svg></g><g transform="matrix(1,0,0,1,119.8076227698292,0)"><svg viewBox="0 0 155.9047544603416 155.9047544603416" height="155.9047544603416" width="155.9047544603416"><g><svg></svg></g><g id="icon-0"><svg viewBox="0 0 155.9047544603416 155.9047544603416" height="155.9047544603416" width="155.9047544603416"><g><path d="M0 77.952c0-43.052 34.9-77.952 77.952-77.952 43.052 0 77.952 34.9 77.953 77.952 0 43.052-34.9 77.952-77.953 77.953-43.052 0-77.952-34.9-77.952-77.953zM77.952 152.772c41.322 0 74.82-33.498 74.82-74.82 0-41.322-33.498-74.82-74.82-74.819-41.322 0-74.82 33.498-74.819 74.819 0 41.322 33.498 74.82 74.819 74.82z" data-fill-palette-color="accent" fill="#374151" stroke="transparent"></path><ellipse rx="77.17285345786908" ry="77.17285345786908" cx="77.9523772301708" cy="77.9523772301708" fill="#374151" stroke="transparent" stroke-width="0" fill-opacity="1" data-fill-palette-color="accent"></ellipse></g><g transform="matrix(1,0,0,1,33.9083303344892,33.68893472047975)"><svg viewBox="0 0 88.08809379136319 88.52688501938209" height="88.52688501938209" width="88.08809379136319"><g><svg xmlns="http://www.w3.org/2000/svg" xmlns:xlink="http://www.w3.org/1999/xlink" version="1.1" x="0" y="0" viewBox="0.0003867149353027344 0 99.5043716430664 100.00003051757812" enable-background="new 0 0 99.504 100" xml:space="preserve" width="88.08809379136319" height="88.52688501938209" class="icon-a-0" data-fill-palette-color="quaternary" id="a-0"><path d="M92.247 100L7.326 99.948c-5.208 0-8.366-4.128-7.012-9.154l1.94-7.109c1.354-5.052 6.738-9.153 11.947-9.153h70.853c5.215 0 10.631 4.102 12.057 9.114l2.051 7.253C100.581 95.911 97.462 100.013 92.247 100z" fill="#dedede" data-fill-palette-color="quaternary"></path><path d="M93.335 0H6.18C3.895 0 2.052 1.849 2.052 4.127v60.704c0 2.278 1.842 4.127 4.127 4.127h87.155c2.285 0 4.127-1.849 4.127-4.127V4.127C97.462 1.849 95.62 0 93.335 0zM89.214 60.703H10.301V8.255h78.913V60.703z" fill="#dedede" data-fill-palette-color="quaternary"></path></svg></g></svg></g></svg></g></svg></g><g></g></svg></g><defs></defs></svg><rect width="395.52" height="236.7168695495692" fill="none" stroke="none" visibility="hidden"></rect></g></svg></g></svg>